<svg xmlns="http://www.w3.org/2000/svg" viewBox="0 0 1339.91 301.89"><defs><style>.cls-1{fill:#ddd;}.cls-1,.cls-2{stroke:#231f20;stroke-miterlimit:10;}.cls-2{fill:#f4cf67;stroke-width:1.5px;}</style></defs><g id="Layer_2" data-name="Layer 2"><g id="Layer_2-2" data-name="Layer 2"><rect class="cls-1" x="565.7" y="189.86" width="773.7" height="13"/><polygon class="cls-1" points="565.7 267.54 1320.04 267.54 1320.04 280.54 565.7 279.75 565.7 267.54"/><path class="cls-2" d="M847.5,129C845.83,67.2,828.85.74,814,.75c-8.43,0-8.3,22-23.1,44.62-26.13,40-77.9,50.87-115.55,56.45-109.47,16.24-526,53.94-605.67,63.53-6,.72-20.68.93-36,9.45-2.53,1.41-14.71,8.4-22.38,19.45-16.75,24.14-14.77,69.17,14.3,94.12,20.88,17.92,47.58,12.23,78.6,10.65,49.85-4.38,101.29-9.9,154.23-12.36,76.36-3.55,150-3.68,220.74-2.22,2.56.06.12,4.11,2.67,4.17,2.2.05,8.71.43,12.66-.09,1.46-.19.64-3.72,1.49-3.7q38.61.94,76,2.37-.51-12.84-1-25.67c-11.25.61-30.69,1-43.24,1.24l1-51.56h49.62V182.85L530,184l-20.29,1-27.91,2.5-8.35-.2c-.72-1-2.8-4.32-4.36-5.55a17.24,17.24,0,0,0-5.36-2.87l-1.56-17.45q23.55-1.57,47.1-3.29c156-6.47,270-3.74,292.65,33.71,10.8,17.83,16.64,46.21,26.14,45.32C842.11,235.86,848.73,174.6,847.5,129ZM61,280.19c-12.34,1.19-22.58-5.69-30-14.29-3.29-3.84-9.77-16.24-9.71-31.82.07-18.21,11.72-42.67,31.89-44.54,8.84-.82,19.69-1.61,28.54-2.37L82,203.81c-22.51,11.75-21.19,33.13-13.42,44.81A27.91,27.91,0,0,0,85.52,260.4l1.19,17.74C77.13,278.82,69.88,279.51,61,280.19Zm41.51-3V259.4c22.18-13.35,21.43-32,13.66-44.25C109.93,205.28,98,202.31,98,202.31V185.46q34.27-2.85,68.6-5.27L177,272.58C151.05,274.05,125.94,275.6,102.54,277.19Zm91.76-5.58-9.37-92.71c86-6,174.18-10.58,260.28-16.2l1.49,13.85c-.69,0-2.39-3-3.08-3l-6.88.13a2.84,2.84,0,0,0-2.79,2.5c-.93,7.11-2.28,29.69-.4,39.25a3.52,3.52,0,0,0,2.91,2.77,23.58,23.58,0,0,0,8.09-.44c1.73-.64,2.49-6.37,7-4.05l4.12,47.54C385.84,262.57,286.17,266.57,194.3,271.61ZM472.09,205.3l31.77,1,7.31,2.92-1,51.67c-9.94-.06-26.42,0-39.15.17l-4.47-50.11A48.63,48.63,0,0,0,472.09,205.3Z"/></g></g></svg>