<svg xmlns="http://www.w3.org/2000/svg" viewBox="0 0 1401 309.66"><defs><style>.cls-1{fill:none;}.cls-2{fill:#ebd39b;stroke:#222;stroke-miterlimit:10;stroke-width:1.5px;}</style></defs><g id="Layer_2" data-name="Layer 2"><g id="Layer_2-2" data-name="Layer 2"><rect class="cls-1" width="1401" height="309.66"/><path class="cls-2" d="M1390.53,232.41c-1-36.1-38.33-41.27-33.11-40H588.13l-16.3.33-2,16.15,23.14.91-5.16,60.41-22,1.83V285.9h21.37s659.94,1.17,735.85.85c51.37-.22,64.9-38.95,64.9-38.95a9.52,9.52,0,0,0,5-1c.61-.32,4.25-2.23,4.65-5.95a6.87,6.87,0,0,0-2.12-5.46A16.43,16.43,0,0,0,1390.53,232.41Zm-39.67,31.72c-12,6.17-40.68,6.17-40.68,6.17h0l-710.87-.84,5.51-59.79,729.56-2.12c15.13-1.78,29.1,4.13,34.39,14.64C1376.35,237.27,1363.9,257.45,1350.86,264.13Z"/><polygon class="cls-2" points="1357.37 275.36 1360.32 281.26 1364.45 283.62 1357.37 288.63 1348.23 288.63 1348.23 280.37 1357.37 275.36"/></g></g></svg>