<svg xmlns="http://www.w3.org/2000/svg" viewBox="0 0 833.33 97.9"><defs><style>.cls-1{fill:#ebd39b;stroke:#222;stroke-miterlimit:10;stroke-width:1.5px;}</style></defs><g id="Layer_2" data-name="Layer 2"><g id="Layer_2-2" data-name="Layer 2"><path class="cls-1" d="M825.44,40.94c-1-36.11-38.33-41.28-33.11-40H23l-16.3.33-2,16.15,23.14.91L22.71,78.72l-22,1.83V94.43H22.12S682.06,95.6,758,95.28c51.37-.22,64.9-38.95,64.9-38.95a9.55,9.55,0,0,0,5-1c.61-.32,4.25-2.23,4.65-6a6.87,6.87,0,0,0-2.12-5.46A16.31,16.31,0,0,0,825.44,40.94ZM785.77,72.66c-12,6.17-40.68,6.16-40.68,6.17h0L34.22,78,39.73,18.2l729.56-2.12c15.13-1.79,29.1,4.12,34.39,14.63C811.26,45.79,798.81,66,785.77,72.66Z"/><polygon class="cls-1" points="792.28 83.88 795.23 89.78 799.36 92.14 792.28 97.15 783.14 97.15 783.14 88.89 792.28 83.88"/></g></g></svg>