<svg xmlns="http://www.w3.org/2000/svg" xmlns:xlink="http://www.w3.org/1999/xlink" viewBox="0 0 1401 309.66"><defs><linearGradient id="a" x1="708.56" y1="455.99" x2="1226.03" y2="21.78" gradientUnits="userSpaceOnUse"><stop offset="0.01" stop-color="#c3932e"/><stop offset="0.13" stop-color="#d5af56"/><stop offset="0.29" stop-color="#e9d083"/><stop offset="0.37" stop-color="#f1dc95"/><stop offset="0.38" stop-color="#f2da8a"/><stop offset="0.46" stop-color="#f6d35f"/><stop offset="0.52" stop-color="#f9cd40"/><stop offset="0.57" stop-color="#faca2d"/><stop offset="0.61" stop-color="#fbc926"/><stop offset="0.76" stop-color="#d3a22c"/><stop offset="0.84" stop-color="#c3922e"/><stop offset="0.86" stop-color="#c79937"/><stop offset="1" stop-color="#eed688"/></linearGradient></defs><rect width="1401" height="309.66" style="fill:none"/><path d="M1395.51,235.41a16.2,16.2,0,0,0-5-3c-1-36.11-38.33-41.28-33.11-40H588.13l-16.3.33-2,16.15,23.14.91-5.16,60.41-22,1.83V285.9h21.37s659.94,1.17,735.85.85a83.91,83.91,0,0,0,25.17-3.72v5.6h9.14l7.08-5-4.13-2.36-1.32-2.64c22.18-11.41,29-30.81,29-30.81a9.55,9.55,0,0,0,5-1c.61-.31,4.25-2.23,4.65-5.94A6.84,6.84,0,0,0,1395.51,235.41Zm-44.65,28.72c-12,6.17-40.68,6.17-40.68,6.17l-710.87-.84,5.51-59.79,729.56-2.12c15.13-1.78,29.1,4.13,34.39,14.63C1376.35,237.26,1363.9,257.45,1350.86,264.13Z" style="stroke:#978659;stroke-miterlimit:10;fill:url(#a)"/></svg>