<svg xmlns="http://www.w3.org/2000/svg" viewBox="0 0 1401 309.66"><defs><style>.cls-1{fill:#ddd;}.cls-1,.cls-2{stroke:#727373;stroke-miterlimit:10;stroke-width:0.5px;}.cls-2,.cls-3{fill:none;}</style></defs><g id="Layer_2" data-name="Layer 2"><g id="Layer_4" data-name="Layer 4"><rect class="cls-1" x="578.55" y="194.23" width="760.99" height="13"/><path class="cls-1" d="M1320.17,271.91v13l-748.29-.78h0l-.48-12.21Z"/><path class="cls-2" d="M847.64,133.36C846,71.57,829,5.11,814.15,5.12c-8.43,0-8.3,22-23.1,44.62-26.13,40-77.9,50.87-115.55,56.45-109.47,16.24-526,53.94-605.67,63.53-6,.72-20.69.94-36,9.46-2.53,1.41-14.71,8.4-22.38,19.44-16.76,24.15-14.77,69.17,14.3,94.12,20.88,17.93,47.58,12.24,78.6,10.65C154.22,299,205.65,293.5,258.59,291c76.36-3.55,150-3.68,220.74-2.22,2.56.05.12,4.11,2.68,4.16,2.2,0,8.71.43,12.66-.09,1.45-.19.64-3.71,1.48-3.69q38.61.93,76,2.36-.51-12.84-1-25.67c-11.25.61-30.69,1-43.24,1.24l1-51.56h49.62V187.22l-48.44,1.18-20.29,1-27.91,2.5-8.36-.21c-.71-1-2.8-4.31-4.36-5.55a17.21,17.21,0,0,0-5.35-2.87l-1.56-17.45q23.55-1.57,47.1-3.29c156-6.47,270-3.74,292.65,33.71,10.8,17.83,16.64,46.21,26.14,45.32C842.25,240.23,848.87,179,847.64,133.36ZM61.17,284.56c-12.34,1.19-22.58-5.69-30-14.29-3.29-3.84-9.77-16.24-9.71-31.82.07-18.21,11.72-42.67,31.89-44.54,8.84-.82,19.69-1.61,28.54-2.37l.22,16.64C59.63,219.94,61,241.31,68.73,253a27.87,27.87,0,0,0,16.93,11.77l1.19,17.74C77.27,283.19,70,283.88,61.17,284.56Zm41.51-3V263.77c22.17-13.34,21.43-32,13.66-44.24-6.27-9.87-18.16-12.85-18.16-12.85V189.83q34.27-2.85,68.6-5.27L177.14,277C151.19,278.42,126.08,280,102.68,281.56ZM194.44,276l-9.37-92.71c86-6,174.18-10.58,260.28-16.2l1.49,13.85c-.69,0-2.39-3-3.09-3l-6.88.13a2.88,2.88,0,0,0-2.79,2.5c-.92,7.11-2.28,29.69-.39,39.25a3.52,3.52,0,0,0,2.91,2.78,23.81,23.81,0,0,0,8.09-.45c1.73-.64,2.48-6.37,7-4l4.12,47.54C386,266.94,286.31,270.94,194.44,276Zm277.79-66.31,31.77,1,7.31,2.91-1,51.67c-9.94-.06-26.42,0-39.15.17l-4.47-50.11A48.63,48.63,0,0,0,472.23,209.67Z"/><rect class="cls-3" width="1401" height="309.66"/></g></g></svg>