<svg xmlns="http://www.w3.org/2000/svg" viewBox="0 0 1867.53 621.48"><g style="opacity:0.86"><rect x="2" y="2" width="1863.53" height="617.48" rx="10.61" style="fill:#fff"/><path d="M184.78,398.46H21.71a4,4,0,0,1-4-4v-87.1a4,4,0,0,1,4-4H184.78a4,4,0,0,1,4,4v87.1A4,4,0,0,1,184.78,398.46ZM21.71,305.36a2,2,0,0,0-2,2v87.1a2,2,0,0,0,2,2H184.78a2,2,0,0,0,2-2v-87.1a2,2,0,0,0-2-2Z"/><path d="M1518.56,398.46h-213.1a4,4,0,0,1-4-4v-87.1a4,4,0,0,1,4-4h213.1a4,4,0,0,1,4,4v87.1A4,4,0,0,1,1518.56,398.46Zm-213.1-93.1a2,2,0,0,0-2,2v87.1a2,2,0,0,0,2,2h213.1a2,2,0,0,0,2-2v-87.1a2,2,0,0,0-2-2Z"/><path d="M285.43,398.46H198.32a4,4,0,0,1-4-4v-87.1a4,4,0,0,1,4-4h87.11a4,4,0,0,1,4,4v87.1A4,4,0,0,1,285.43,398.46Zm-87.11-93.1a2,2,0,0,0-2,2v87.1a2,2,0,0,0,2,2h87.11a2,2,0,0,0,2-2v-87.1a2,2,0,0,0-2-2Z"/><path d="M386.08,398.46H299a4,4,0,0,1-4-4v-87.1a4,4,0,0,1,4-4h87.11a4,4,0,0,1,4,4v87.1A4,4,0,0,1,386.08,398.46ZM299,305.36a2,2,0,0,0-2,2v87.1a2,2,0,0,0,2,2h87.11a2,2,0,0,0,2-2v-87.1a2,2,0,0,0-2-2Z"/><path d="M486.73,398.46H399.62a4,4,0,0,1-4-4v-87.1a4,4,0,0,1,4-4h87.11a4,4,0,0,1,4,4v87.1A4,4,0,0,1,486.73,398.46Zm-87.11-93.1a2,2,0,0,0-2,2v87.1a2,2,0,0,0,2,2h87.11a2,2,0,0,0,2-2v-87.1a2,2,0,0,0-2-2Z"/><path d="M587.38,398.46H500.27a4,4,0,0,1-4-4v-87.1a4,4,0,0,1,4-4h87.11a4,4,0,0,1,4,4v87.1A4,4,0,0,1,587.38,398.46Zm-87.11-93.1a2,2,0,0,0-2,2v87.1a2,2,0,0,0,2,2h87.11a2,2,0,0,0,2-2v-87.1a2,2,0,0,0-2-2Z"/><path d="M1191.27,398.46h-87.11a4,4,0,0,1-4-4v-87.1a4,4,0,0,1,4-4h87.11a4,4,0,0,1,4,4v87.1A4,4,0,0,1,1191.27,398.46Zm-87.11-93.1a2,2,0,0,0-2,2v87.1a2,2,0,0,0,2,2h87.11a2,2,0,0,0,2-2v-87.1a2,2,0,0,0-2-2Z"/><path d="M1090.62,398.46h-87.11a4,4,0,0,1-4-4v-87.1a4,4,0,0,1,4-4h87.11a4,4,0,0,1,4,4v87.1A4,4,0,0,1,1090.62,398.46Zm-87.11-93.1a2,2,0,0,0-2,2v87.1a2,2,0,0,0,2,2h87.11a2,2,0,0,0,2-2v-87.1a2,2,0,0,0-2-2Z"/><path d="M990,398.46H902.86a4,4,0,0,1-4-4v-87.1a4,4,0,0,1,4-4H990a4,4,0,0,1,4,4v87.1A4,4,0,0,1,990,398.46Zm-87.11-93.1a2,2,0,0,0-2,2v87.1a2,2,0,0,0,2,2H990a2,2,0,0,0,2-2v-87.1a2,2,0,0,0-2-2Z"/><path d="M889.32,398.46h-87.1a4,4,0,0,1-4-4v-87.1a4,4,0,0,1,4-4h87.1a4,4,0,0,1,4,4v87.1A4,4,0,0,1,889.32,398.46Zm-87.1-93.1a2,2,0,0,0-2,2v87.1a2,2,0,0,0,2,2h87.1a2,2,0,0,0,2-2v-87.1a2,2,0,0,0-2-2Z"/><path d="M788.67,398.46h-87.1a4,4,0,0,1-4-4v-87.1a4,4,0,0,1,4-4h87.1a4,4,0,0,1,4,4v87.1A4,4,0,0,1,788.67,398.46Zm-87.1-93.1a2,2,0,0,0-2,2v87.1a2,2,0,0,0,2,2h87.1a2,2,0,0,0,2-2v-87.1a2,2,0,0,0-2-2Z"/><path d="M688,398.46H600.92a4,4,0,0,1-4-4v-87.1a4,4,0,0,1,4-4H688a4,4,0,0,1,4,4v87.1A4,4,0,0,1,688,398.46Zm-87.11-93.1a2,2,0,0,0-2,2v87.1a2,2,0,0,0,2,2H688a2,2,0,0,0,2-2v-87.1a2,2,0,0,0-2-2Z"/><path d="M1291.92,398.46h-87.11a4,4,0,0,1-4-4v-87.1a4,4,0,0,1,4-4h87.11a4,4,0,0,1,4,4v87.1A4,4,0,0,1,1291.92,398.46Zm-87.11-93.1a2,2,0,0,0-2,2v87.1a2,2,0,0,0,2,2h87.11a2,2,0,0,0,2-2v-87.1a2,2,0,0,0-2-2Z"/><path d="M234.81,499.11H21.71a4,4,0,0,1-4-4V408a4,4,0,0,1,4-4h213.1a4,4,0,0,1,4,4v87.1A4,4,0,0,1,234.81,499.11ZM21.71,406a2,2,0,0,0-2,2v87.1a2,2,0,0,0,2,2h213.1a2,2,0,0,0,2-2V408a2,2,0,0,0-2-2Z"/><path d="M1518.56,499.11H1256.33a4,4,0,0,1-4-4V408a4,4,0,0,1,4-4h262.23a4,4,0,0,1,4,4v87.1A4,4,0,0,1,1518.56,499.11ZM1256.33,406a2,2,0,0,0-2,2v87.1a2,2,0,0,0,2,2h262.23a2,2,0,0,0,2-2V408a2,2,0,0,0-2-2Z"/><path d="M335.59,499.11h-87.1a4,4,0,0,1-4-4V408a4,4,0,0,1,4-4h87.1a4,4,0,0,1,4,4v87.1A4,4,0,0,1,335.59,499.11ZM248.49,406a2,2,0,0,0-2,2v87.1a2,2,0,0,0,2,2h87.1a2,2,0,0,0,2-2V408a2,2,0,0,0-2-2Z"/><path d="M436.38,499.11H349.27a4,4,0,0,1-4-4V408a4,4,0,0,1,4-4h87.11a4,4,0,0,1,4,4v87.1A4,4,0,0,1,436.38,499.11ZM349.27,406a2,2,0,0,0-2,2v87.1a2,2,0,0,0,2,2h87.11a2,2,0,0,0,2-2V408a2,2,0,0,0-2-2Z"/><path d="M537.16,499.11h-87.1a4,4,0,0,1-4-4V408a4,4,0,0,1,4-4h87.1a4,4,0,0,1,4,4v87.1A4,4,0,0,1,537.16,499.11ZM450.06,406a2,2,0,0,0-2,2v87.1a2,2,0,0,0,2,2h87.1a2,2,0,0,0,2-2V408a2,2,0,0,0-2-2Z"/><path d="M1141.87,499.11h-87.11a4,4,0,0,1-4-4V408a4,4,0,0,1,4-4h87.11a4,4,0,0,1,4,4v87.1A4,4,0,0,1,1141.87,499.11ZM1054.76,406a2,2,0,0,0-2,2v87.1a2,2,0,0,0,2,2h87.11a2,2,0,0,0,2-2V408a2,2,0,0,0-2-2Z"/><path d="M1041.08,499.11H954a4,4,0,0,1-4-4V408a4,4,0,0,1,4-4h87.11a4,4,0,0,1,4,4v87.1A4,4,0,0,1,1041.08,499.11ZM954,406a2,2,0,0,0-2,2v87.1a2,2,0,0,0,2,2h87.11a2,2,0,0,0,2-2V408a2,2,0,0,0-2-2Z"/><path d="M940.3,499.11H853.19a4,4,0,0,1-4-4V408a4,4,0,0,1,4-4H940.3a4,4,0,0,1,4,4v87.1A4,4,0,0,1,940.3,499.11ZM853.19,406a2,2,0,0,0-2,2v87.1a2,2,0,0,0,2,2H940.3a2,2,0,0,0,2-2V408a2,2,0,0,0-2-2Z"/><path d="M839.51,499.11h-87.1a4,4,0,0,1-4-4V408a4,4,0,0,1,4-4h87.1a4,4,0,0,1,4,4v87.1A4,4,0,0,1,839.51,499.11ZM752.41,406a2,2,0,0,0-2,2v87.1a2,2,0,0,0,2,2h87.1a2,2,0,0,0,2-2V408a2,2,0,0,0-2-2Z"/><path d="M738.73,499.11H651.62a4,4,0,0,1-4-4V408a4,4,0,0,1,4-4h87.11a4,4,0,0,1,4,4v87.1A4,4,0,0,1,738.73,499.11ZM651.62,406a2,2,0,0,0-2,2v87.1a2,2,0,0,0,2,2h87.11a2,2,0,0,0,2-2V408a2,2,0,0,0-2-2Z"/><path d="M638,499.11H550.84a4,4,0,0,1-4-4V408a4,4,0,0,1,4-4H638a4,4,0,0,1,4,4v87.1A4,4,0,0,1,638,499.11ZM550.84,406a2,2,0,0,0-2,2v87.1a2,2,0,0,0,2,2H638a2,2,0,0,0,2-2V408a2,2,0,0,0-2-2Z"/><path d="M1242.65,499.11h-87.11a4,4,0,0,1-4-4V408a4,4,0,0,1,4-4h87.11a4,4,0,0,1,4,4v87.1A4,4,0,0,1,1242.65,499.11ZM1155.54,406a2,2,0,0,0-2,2v87.1a2,2,0,0,0,2,2h87.11a2,2,0,0,0,2-2V408a2,2,0,0,0-2-2Z"/><path d="M1745.26,499.11h-87.11a4,4,0,0,1-4-4V408a4,4,0,0,1,4-4h87.11a4,4,0,0,1,4,4v87.1A4,4,0,0,1,1745.26,499.11ZM1658.15,406a2,2,0,0,0-2,2v87.1a2,2,0,0,0,2,2h87.11a2,2,0,0,0,2-2V408a2,2,0,0,0-2-2Z"/><path d="M128.1,599.77H21.71a4,4,0,0,1-4-4V508.66a4,4,0,0,1,4-4H128.1a4,4,0,0,1,4,4v87.11A4,4,0,0,1,128.1,599.77ZM21.71,506.66a2,2,0,0,0-2,2v87.11a2,2,0,0,0,2,2H128.1a2,2,0,0,0,2-2V508.66a2,2,0,0,0-2-2Z"/><path d="M248.91,599.77H142.52a4,4,0,0,1-4-4V508.66a4,4,0,0,1,4-4H248.91a4,4,0,0,1,4,4v87.11A4,4,0,0,1,248.91,599.77ZM142.52,506.66a2,2,0,0,0-2,2v87.11a2,2,0,0,0,2,2H248.91a2,2,0,0,0,2-2V508.66a2,2,0,0,0-2-2Z"/><path d="M369.72,599.77H263.33a4,4,0,0,1-4-4V508.66a4,4,0,0,1,4-4H369.72a4,4,0,0,1,4,4v87.11A4,4,0,0,1,369.72,599.77ZM263.33,506.66a2,2,0,0,0-2,2v87.11a2,2,0,0,0,2,2H369.72a2,2,0,0,0,2-2V508.66a2,2,0,0,0-2-2Z"/><path d="M1156.14,599.77H1049.75a4,4,0,0,1-4-4V508.66a4,4,0,0,1,4-4h106.39a4,4,0,0,1,4,4v87.11A4,4,0,0,1,1156.14,599.77Zm-106.39-93.11a2,2,0,0,0-2,2v87.11a2,2,0,0,0,2,2h106.39a2,2,0,0,0,2-2V508.66a2,2,0,0,0-2-2Z"/><path d="M1276.94,599.77H1170.55a4,4,0,0,1-4-4V508.66a4,4,0,0,1,4-4h106.39a4,4,0,0,1,4,4v87.11A4,4,0,0,1,1276.94,599.77Zm-106.39-93.11a2,2,0,0,0-2,2v87.11a2,2,0,0,0,2,2h106.39a2,2,0,0,0,2-2V508.66a2,2,0,0,0-2-2Z"/><path d="M1397.75,599.77H1291.36a4,4,0,0,1-4-4V508.66a4,4,0,0,1,4-4h106.39a4,4,0,0,1,4,4v87.11A4,4,0,0,1,1397.75,599.77Zm-106.39-93.11a2,2,0,0,0-2,2v87.11a2,2,0,0,0,2,2h106.39a2,2,0,0,0,2-2V508.66a2,2,0,0,0-2-2Z"/><path d="M1518.56,599.77H1412.17a4,4,0,0,1-4-4V508.66a4,4,0,0,1,4-4h106.39a4,4,0,0,1,4,4v87.11A4,4,0,0,1,1518.56,599.77Zm-106.39-93.11a2,2,0,0,0-2,2v87.11a2,2,0,0,0,2,2h106.39a2,2,0,0,0,2-2V508.66a2,2,0,0,0-2-2Z"/><path d="M1035.33,599.77H384.13a4,4,0,0,1-4-4V508.66a4,4,0,0,1,4-4h651.2a4,4,0,0,1,4,4v87.11A4,4,0,0,1,1035.33,599.77Zm-651.2-93.11a2,2,0,0,0-2,2v87.11a2,2,0,0,0,2,2h651.2a2,2,0,0,0,2-2V508.66a2,2,0,0,0-2-2Z"/><path d="M1644.69,599.77h-87.1a4,4,0,0,1-4-4V508.66a4,4,0,0,1,4-4h87.1a4,4,0,0,1,4,4v87.11A4,4,0,0,1,1644.69,599.77Zm-87.1-93.11a2,2,0,0,0-2,2v87.11a2,2,0,0,0,2,2h87.1a2,2,0,0,0,2-2V508.66a2,2,0,0,0-2-2Z"/><path d="M1745.26,599.77h-87.11a4,4,0,0,1-4-4V508.66a4,4,0,0,1,4-4h87.11a4,4,0,0,1,4,4v87.11A4,4,0,0,1,1745.26,599.77Zm-87.11-93.11a2,2,0,0,0-2,2v87.11a2,2,0,0,0,2,2h87.11a2,2,0,0,0,2-2V508.66a2,2,0,0,0-2-2Z"/><path d="M1845.82,599.77h-87.11a4,4,0,0,1-4-4V508.66a4,4,0,0,1,4-4h87.11a4,4,0,0,1,4,4v87.11A4,4,0,0,1,1845.82,599.77Zm-87.11-93.11a2,2,0,0,0-2,2v87.11a2,2,0,0,0,2,2h87.11a2,2,0,0,0,2-2V508.66a2,2,0,0,0-2-2Z"/><path d="M159.88,297.81H21.71a4,4,0,0,1-4-4v-87.1a4,4,0,0,1,4-4H159.88a4,4,0,0,1,4,4v87.1A4,4,0,0,1,159.88,297.81ZM21.71,204.71a2,2,0,0,0-2,2v87.1a2,2,0,0,0,2,2H159.88a2,2,0,0,0,2-2v-87.1a2,2,0,0,0-2-2Z"/><path d="M1518.56,297.81H1381.75a4,4,0,0,1-4-4v-87.1a4,4,0,0,1,4-4h136.81a4,4,0,0,1,4,4v87.1A4,4,0,0,1,1518.56,297.81Zm-136.81-93.1a2,2,0,0,0-2,2v87.1a2,2,0,0,0,2,2h136.81a2,2,0,0,0,2-2v-87.1a2,2,0,0,0-2-2Z"/><path d="M260.57,297.81H173.46a4,4,0,0,1-4-4v-87.1a4,4,0,0,1,4-4h87.11a4,4,0,0,1,4,4v87.1A4,4,0,0,1,260.57,297.81Zm-87.11-93.1a2,2,0,0,0-2,2v87.1a2,2,0,0,0,2,2h87.11a2,2,0,0,0,2-2v-87.1a2,2,0,0,0-2-2Z"/><path d="M361.26,297.81H274.15a4,4,0,0,1-4-4v-87.1a4,4,0,0,1,4-4h87.11a4,4,0,0,1,4,4v87.1A4,4,0,0,1,361.26,297.81Zm-87.11-93.1a2,2,0,0,0-2,2v87.1a2,2,0,0,0,2,2h87.11a2,2,0,0,0,2-2v-87.1a2,2,0,0,0-2-2Z"/><path d="M462,297.81h-87.1a4,4,0,0,1-4-4v-87.1a4,4,0,0,1,4-4H462a4,4,0,0,1,4,4v87.1A4,4,0,0,1,462,297.81Zm-87.1-93.1a2,2,0,0,0-2,2v87.1a2,2,0,0,0,2,2H462a2,2,0,0,0,2-2v-87.1a2,2,0,0,0-2-2Z"/><path d="M562.64,297.81h-87.1a4,4,0,0,1-4-4v-87.1a4,4,0,0,1,4-4h87.1a4,4,0,0,1,4,4v87.1A4,4,0,0,1,562.64,297.81Zm-87.1-93.1a2,2,0,0,0-2,2v87.1a2,2,0,0,0,2,2h87.1a2,2,0,0,0,2-2v-87.1a2,2,0,0,0-2-2Z"/><path d="M1166.79,297.81h-87.11a4,4,0,0,1-4-4v-87.1a4,4,0,0,1,4-4h87.11a4,4,0,0,1,4,4v87.1A4,4,0,0,1,1166.79,297.81Zm-87.11-93.1a2,2,0,0,0-2,2v87.1a2,2,0,0,0,2,2h87.11a2,2,0,0,0,2-2v-87.1a2,2,0,0,0-2-2Z"/><path d="M1066.1,297.81H979a4,4,0,0,1-4-4v-87.1a4,4,0,0,1,4-4h87.11a4,4,0,0,1,4,4v87.1A4,4,0,0,1,1066.1,297.81ZM979,204.71a2,2,0,0,0-2,2v87.1a2,2,0,0,0,2,2h87.11a2,2,0,0,0,2-2v-87.1a2,2,0,0,0-2-2Z"/><path d="M965.41,297.81H878.3a4,4,0,0,1-4-4v-87.1a4,4,0,0,1,4-4h87.11a4,4,0,0,1,4,4v87.1A4,4,0,0,1,965.41,297.81Zm-87.11-93.1a2,2,0,0,0-2,2v87.1a2,2,0,0,0,2,2h87.11a2,2,0,0,0,2-2v-87.1a2,2,0,0,0-2-2Z"/><path d="M864.72,297.81H777.61a4,4,0,0,1-4-4v-87.1a4,4,0,0,1,4-4h87.11a4,4,0,0,1,4,4v87.1A4,4,0,0,1,864.72,297.81Zm-87.11-93.1a2,2,0,0,0-2,2v87.1a2,2,0,0,0,2,2h87.11a2,2,0,0,0,2-2v-87.1a2,2,0,0,0-2-2Z"/><path d="M764,297.81h-87.1a4,4,0,0,1-4-4v-87.1a4,4,0,0,1,4-4H764a4,4,0,0,1,4,4v87.1A4,4,0,0,1,764,297.81Zm-87.1-93.1a2,2,0,0,0-2,2v87.1a2,2,0,0,0,2,2H764a2,2,0,0,0,2-2v-87.1a2,2,0,0,0-2-2Z"/><path d="M663.33,297.81h-87.1a4,4,0,0,1-4-4v-87.1a4,4,0,0,1,4-4h87.1a4,4,0,0,1,4,4v87.1A4,4,0,0,1,663.33,297.81Zm-87.1-93.1a2,2,0,0,0-2,2v87.1a2,2,0,0,0,2,2h87.1a2,2,0,0,0,2-2v-87.1a2,2,0,0,0-2-2Z"/><path d="M1267.48,297.81h-87.11a4,4,0,0,1-4-4v-87.1a4,4,0,0,1,4-4h87.11a4,4,0,0,1,4,4v87.1A4,4,0,0,1,1267.48,297.81Zm-87.11-93.1a2,2,0,0,0-2,2v87.1a2,2,0,0,0,2,2h87.11a2,2,0,0,0,2-2v-87.1a2,2,0,0,0-2-2Z"/><path d="M1368.17,297.81h-87.11a4,4,0,0,1-4-4v-87.1a4,4,0,0,1,4-4h87.11a4,4,0,0,1,4,4v87.1A4,4,0,0,1,1368.17,297.81Zm-87.11-93.1a2,2,0,0,0-2,2v87.1a2,2,0,0,0,2,2h87.11a2,2,0,0,0,2-2v-87.1a2,2,0,0,0-2-2Z"/><path d="M1644.69,297.81h-87.1a4,4,0,0,1-4-4v-87.1a4,4,0,0,1,4-4h87.1a4,4,0,0,1,4,4v87.1A4,4,0,0,1,1644.69,297.81Zm-87.1-93.1a2,2,0,0,0-2,2v87.1a2,2,0,0,0,2,2h87.1a2,2,0,0,0,2-2v-87.1a2,2,0,0,0-2-2Z"/><path d="M1745.26,297.81h-87.11a4,4,0,0,1-4-4v-87.1a4,4,0,0,1,4-4h87.11a4,4,0,0,1,4,4v87.1A4,4,0,0,1,1745.26,297.81Zm-87.11-93.1a2,2,0,0,0-2,2v87.1a2,2,0,0,0,2,2h87.11a2,2,0,0,0,2-2v-87.1a2,2,0,0,0-2-2Z"/><path d="M1845.82,297.81h-87.11a4,4,0,0,1-4-4v-87.1a4,4,0,0,1,4-4h87.11a4,4,0,0,1,4,4v87.1A4,4,0,0,1,1845.82,297.81Zm-87.11-93.1a2,2,0,0,0-2,2v87.1a2,2,0,0,0,2,2h87.11a2,2,0,0,0,2-2v-87.1a2,2,0,0,0-2-2Z"/><path d="M1518.56,197.16h-188a4,4,0,0,1-4-4V106.05a4,4,0,0,1,4-4h188a4,4,0,0,1,4,4v87.11A4,4,0,0,1,1518.56,197.16Zm-188-93.11a2,2,0,0,0-2,2v87.11a2,2,0,0,0,2,2h188a2,2,0,0,0,2-2V106.05a2,2,0,0,0-2-2Z"/><path d="M310.18,197.16h-87.1a4,4,0,0,1-4-4V106.05a4,4,0,0,1,4-4h87.1a4,4,0,0,1,4,4v87.11A4,4,0,0,1,310.18,197.16Zm-87.1-93.11a2,2,0,0,0-2,2v87.11a2,2,0,0,0,2,2h87.1a2,2,0,0,0,2-2V106.05a2,2,0,0,0-2-2Z"/><path d="M410.86,197.16h-87.1a4,4,0,0,1-4-4V106.05a4,4,0,0,1,4-4h87.1a4,4,0,0,1,4,4v87.11A4,4,0,0,1,410.86,197.16Zm-87.1-93.11a2,2,0,0,0-2,2v87.11a2,2,0,0,0,2,2h87.1a2,2,0,0,0,2-2V106.05a2,2,0,0,0-2-2Z"/><path d="M108.82,197.16H21.71a4,4,0,0,1-4-4V106.05a4,4,0,0,1,4-4h87.11a4,4,0,0,1,4,4v87.11A4,4,0,0,1,108.82,197.16ZM21.71,104.05a2,2,0,0,0-2,2v87.11a2,2,0,0,0,2,2h87.11a2,2,0,0,0,2-2V106.05a2,2,0,0,0-2-2Z"/><path d="M209.5,197.16H122.39a4,4,0,0,1-4-4V106.05a4,4,0,0,1,4-4H209.5a4,4,0,0,1,4,4v87.11A4,4,0,0,1,209.5,197.16Zm-87.11-93.11a2,2,0,0,0-2,2v87.11a2,2,0,0,0,2,2H209.5a2,2,0,0,0,2-2V106.05a2,2,0,0,0-2-2Z"/><path d="M511.55,197.16H424.44a4,4,0,0,1-4-4V106.05a4,4,0,0,1,4-4h87.11a4,4,0,0,1,4,4v87.11A4,4,0,0,1,511.55,197.16Zm-87.11-93.11a2,2,0,0,0-2,2v87.11a2,2,0,0,0,2,2h87.11a2,2,0,0,0,2-2V106.05a2,2,0,0,0-2-2Z"/><path d="M612.23,197.16H525.12a4,4,0,0,1-4-4V106.05a4,4,0,0,1,4-4h87.11a4,4,0,0,1,4,4v87.11A4,4,0,0,1,612.23,197.16Zm-87.11-93.11a2,2,0,0,0-2,2v87.11a2,2,0,0,0,2,2h87.11a2,2,0,0,0,2-2V106.05a2,2,0,0,0-2-2Z"/><path d="M1216.33,197.16h-87.11a4,4,0,0,1-4-4V106.05a4,4,0,0,1,4-4h87.11a4,4,0,0,1,4,4v87.11A4,4,0,0,1,1216.33,197.16Zm-87.11-93.11a2,2,0,0,0-2,2v87.11a2,2,0,0,0,2,2h87.11a2,2,0,0,0,2-2V106.05a2,2,0,0,0-2-2Z"/><path d="M1115.64,197.16h-87.1a4,4,0,0,1-4-4V106.05a4,4,0,0,1,4-4h87.1a4,4,0,0,1,4,4v87.11A4,4,0,0,1,1115.64,197.16Zm-87.1-93.11a2,2,0,0,0-2,2v87.11a2,2,0,0,0,2,2h87.1a2,2,0,0,0,2-2V106.05a2,2,0,0,0-2-2Z"/><path d="M1015,197.16H927.85a4,4,0,0,1-4-4V106.05a4,4,0,0,1,4-4H1015a4,4,0,0,1,4,4v87.11A4,4,0,0,1,1015,197.16Zm-87.11-93.11a2,2,0,0,0-2,2v87.11a2,2,0,0,0,2,2H1015a2,2,0,0,0,2-2V106.05a2,2,0,0,0-2-2Z"/><path d="M914.28,197.16H827.17a4,4,0,0,1-4-4V106.05a4,4,0,0,1,4-4h87.11a4,4,0,0,1,4,4v87.11A4,4,0,0,1,914.28,197.16Zm-87.11-93.11a2,2,0,0,0-2,2v87.11a2,2,0,0,0,2,2h87.11a2,2,0,0,0,2-2V106.05a2,2,0,0,0-2-2Z"/><path d="M813.6,197.16H726.49a4,4,0,0,1-4-4V106.05a4,4,0,0,1,4-4H813.6a4,4,0,0,1,4,4v87.11A4,4,0,0,1,813.6,197.16Zm-87.11-93.11a2,2,0,0,0-2,2v87.11a2,2,0,0,0,2,2H813.6a2,2,0,0,0,2-2V106.05a2,2,0,0,0-2-2Z"/><path d="M712.91,197.16h-87.1a4,4,0,0,1-4-4V106.05a4,4,0,0,1,4-4h87.1a4,4,0,0,1,4,4v87.11A4,4,0,0,1,712.91,197.16Zm-87.1-93.11a2,2,0,0,0-2,2v87.11a2,2,0,0,0,2,2h87.1a2,2,0,0,0,2-2V106.05a2,2,0,0,0-2-2Z"/><path d="M1317,197.16H1229.9a4,4,0,0,1-4-4V106.05a4,4,0,0,1,4-4H1317a4,4,0,0,1,4,4v87.11A4,4,0,0,1,1317,197.16Zm-87.11-93.11a2,2,0,0,0-2,2v87.11a2,2,0,0,0,2,2H1317a2,2,0,0,0,2-2V106.05a2,2,0,0,0-2-2Z"/><path d="M1644.69,197.16h-87.1a4,4,0,0,1-4-4V106.05a4,4,0,0,1,4-4h87.1a4,4,0,0,1,4,4v87.11A4,4,0,0,1,1644.69,197.16Zm-87.1-93.11a2,2,0,0,0-2,2v87.11a2,2,0,0,0,2,2h87.1a2,2,0,0,0,2-2V106.05a2,2,0,0,0-2-2Z"/><path d="M1745.26,197.16h-87.11a4,4,0,0,1-4-4V106.05a4,4,0,0,1,4-4h87.11a4,4,0,0,1,4,4v87.11A4,4,0,0,1,1745.26,197.16Zm-87.11-93.11a2,2,0,0,0-2,2v87.11a2,2,0,0,0,2,2h87.11a2,2,0,0,0,2-2V106.05a2,2,0,0,0-2-2Z"/><path d="M1845.82,197.16h-87.11a4,4,0,0,1-4-4V106.05a4,4,0,0,1,4-4h87.11a4,4,0,0,1,4,4v87.11A4,4,0,0,1,1845.82,197.16Zm-87.11-93.11a2,2,0,0,0-2,2v87.11a2,2,0,0,0,2,2h87.11a2,2,0,0,0,2-2V106.05a2,2,0,0,0-2-2Z"/><path d="M109.7,70.27H20.83a3.13,3.13,0,0,1-3.12-3.13V24.83a3.12,3.12,0,0,1,3.12-3.12H109.7a3.12,3.12,0,0,1,3.12,3.12V67.14A3.13,3.13,0,0,1,109.7,70.27ZM20.83,23.71a1.12,1.12,0,0,0-1.12,1.12V67.14a1.13,1.13,0,0,0,1.12,1.13H109.7a1.13,1.13,0,0,0,1.12-1.13V24.83a1.13,1.13,0,0,0-1.12-1.12Z"/><path d="M1645.57,70.27h-88.86a3.13,3.13,0,0,1-3.12-3.13V24.83a3.12,3.12,0,0,1,3.12-3.12h88.86a3.12,3.12,0,0,1,3.12,3.12V67.14A3.13,3.13,0,0,1,1645.57,70.27Zm-88.86-46.56a1.12,1.12,0,0,0-1.12,1.12V67.14a1.13,1.13,0,0,0,1.12,1.13h88.86a1.13,1.13,0,0,0,1.12-1.13V24.83a1.12,1.12,0,0,0-1.12-1.12Z"/><path d="M1746.13,70.27h-88.86a3.13,3.13,0,0,1-3.12-3.13V24.83a3.12,3.12,0,0,1,3.12-3.12h88.86a3.13,3.13,0,0,1,3.13,3.12V67.14A3.13,3.13,0,0,1,1746.13,70.27Zm-88.86-46.56a1.12,1.12,0,0,0-1.12,1.12V67.14a1.13,1.13,0,0,0,1.12,1.13h88.86a1.14,1.14,0,0,0,1.13-1.13V24.83a1.13,1.13,0,0,0-1.13-1.12Z"/><path d="M1846.7,70.27h-88.87a3.13,3.13,0,0,1-3.12-3.13V24.83a3.12,3.12,0,0,1,3.12-3.12h88.87a3.12,3.12,0,0,1,3.12,3.12V67.14A3.13,3.13,0,0,1,1846.7,70.27Zm-88.87-46.56a1.12,1.12,0,0,0-1.12,1.12V67.14a1.13,1.13,0,0,0,1.12,1.13h88.87a1.13,1.13,0,0,0,1.12-1.13V24.83a1.13,1.13,0,0,0-1.12-1.12Z"/><path d="M1318,70.27h-88.86a3.13,3.13,0,0,1-3.13-3.13V24.83a3.13,3.13,0,0,1,3.13-3.12H1318a3.12,3.12,0,0,1,3.12,3.12V67.14A3.13,3.13,0,0,1,1318,70.27Zm-88.86-46.56a1.13,1.13,0,0,0-1.13,1.12V67.14a1.14,1.14,0,0,0,1.13,1.13H1318a1.13,1.13,0,0,0,1.12-1.13V24.83a1.12,1.12,0,0,0-1.12-1.12Z"/><path d="M1217.21,70.27h-88.87a3.13,3.13,0,0,1-3.12-3.13V24.83a3.12,3.12,0,0,1,3.12-3.12h88.87a3.12,3.12,0,0,1,3.12,3.12V67.14A3.13,3.13,0,0,1,1217.21,70.27Zm-88.87-46.56a1.12,1.12,0,0,0-1.12,1.12V67.14a1.13,1.13,0,0,0,1.12,1.13h88.87a1.13,1.13,0,0,0,1.12-1.13V24.83a1.13,1.13,0,0,0-1.12-1.12Z"/><path d="M1418.69,70.27h-88.86a3.13,3.13,0,0,1-3.12-3.13V24.83a3.12,3.12,0,0,1,3.12-3.12h88.86a3.13,3.13,0,0,1,3.13,3.12V67.14A3.13,3.13,0,0,1,1418.69,70.27Zm-88.86-46.56a1.12,1.12,0,0,0-1.12,1.12V67.14a1.13,1.13,0,0,0,1.12,1.13h88.86a1.14,1.14,0,0,0,1.13-1.13V24.83a1.13,1.13,0,0,0-1.13-1.12Z"/><path d="M1519.44,70.27h-88.87a3.13,3.13,0,0,1-3.12-3.13V24.83a3.12,3.12,0,0,1,3.12-3.12h88.87a3.12,3.12,0,0,1,3.12,3.12V67.14A3.13,3.13,0,0,1,1519.44,70.27Zm-88.87-46.56a1.13,1.13,0,0,0-1.12,1.12V67.14a1.13,1.13,0,0,0,1.12,1.13h88.87a1.13,1.13,0,0,0,1.12-1.13V24.83a1.12,1.12,0,0,0-1.12-1.12Z"/><path d="M865.59,70.27H776.73a3.13,3.13,0,0,1-3.12-3.13V24.83a3.12,3.12,0,0,1,3.12-3.12h88.86a3.13,3.13,0,0,1,3.13,3.12V67.14A3.13,3.13,0,0,1,865.59,70.27ZM776.73,23.71a1.12,1.12,0,0,0-1.12,1.12V67.14a1.13,1.13,0,0,0,1.12,1.13h88.86a1.14,1.14,0,0,0,1.13-1.13V24.83a1.13,1.13,0,0,0-1.13-1.12Z"/><path d="M764.9,70.27H676a3.13,3.13,0,0,1-3.12-3.13V24.83A3.12,3.12,0,0,1,676,21.71H764.9A3.12,3.12,0,0,1,768,24.83V67.14A3.13,3.13,0,0,1,764.9,70.27ZM676,23.71a1.12,1.12,0,0,0-1.12,1.12V67.14A1.13,1.13,0,0,0,676,68.27H764.9A1.13,1.13,0,0,0,766,67.14V24.83a1.12,1.12,0,0,0-1.12-1.12Z"/><path d="M966.28,70.27H877.42a3.13,3.13,0,0,1-3.12-3.13V24.83a3.12,3.12,0,0,1,3.12-3.12h88.86a3.13,3.13,0,0,1,3.13,3.12V67.14A3.13,3.13,0,0,1,966.28,70.27ZM877.42,23.71a1.12,1.12,0,0,0-1.12,1.12V67.14a1.13,1.13,0,0,0,1.12,1.13h88.86a1.14,1.14,0,0,0,1.13-1.13V24.83a1.13,1.13,0,0,0-1.13-1.12Z"/><path d="M1067,70.27H978.11A3.13,3.13,0,0,1,975,67.14V24.83a3.12,3.12,0,0,1,3.12-3.12H1067a3.12,3.12,0,0,1,3.12,3.12V67.14A3.13,3.13,0,0,1,1067,70.27ZM978.11,23.71A1.12,1.12,0,0,0,977,24.83V67.14a1.13,1.13,0,0,0,1.12,1.13H1067a1.13,1.13,0,0,0,1.12-1.13V24.83a1.13,1.13,0,0,0-1.12-1.12Z"/><path d="M411.74,70.27H322.88a3.13,3.13,0,0,1-3.12-3.13V24.83a3.12,3.12,0,0,1,3.12-3.12h88.86a3.12,3.12,0,0,1,3.12,3.12V67.14A3.13,3.13,0,0,1,411.74,70.27ZM322.88,23.71a1.12,1.12,0,0,0-1.12,1.12V67.14a1.13,1.13,0,0,0,1.12,1.13h88.86a1.13,1.13,0,0,0,1.12-1.13V24.83a1.12,1.12,0,0,0-1.12-1.12Z"/><path d="M311.06,70.27H222.2a3.13,3.13,0,0,1-3.12-3.13V24.83a3.12,3.12,0,0,1,3.12-3.12h88.86a3.12,3.12,0,0,1,3.12,3.12V67.14A3.13,3.13,0,0,1,311.06,70.27ZM222.2,23.71a1.12,1.12,0,0,0-1.12,1.12V67.14a1.13,1.13,0,0,0,1.12,1.13h88.86a1.13,1.13,0,0,0,1.12-1.13V24.83a1.12,1.12,0,0,0-1.12-1.12Z"/><path d="M512.43,70.27H423.56a3.13,3.13,0,0,1-3.12-3.13V24.83a3.12,3.12,0,0,1,3.12-3.12h88.87a3.12,3.12,0,0,1,3.12,3.12V67.14A3.13,3.13,0,0,1,512.43,70.27ZM423.56,23.71a1.12,1.12,0,0,0-1.12,1.12V67.14a1.13,1.13,0,0,0,1.12,1.13h88.87a1.13,1.13,0,0,0,1.12-1.13V24.83a1.13,1.13,0,0,0-1.12-1.12Z"/><path d="M613.11,70.27H524.24a3.13,3.13,0,0,1-3.12-3.13V24.83a3.12,3.12,0,0,1,3.12-3.12h88.87a3.12,3.12,0,0,1,3.12,3.12V67.14A3.13,3.13,0,0,1,613.11,70.27ZM524.24,23.71a1.13,1.13,0,0,0-1.12,1.12V67.14a1.13,1.13,0,0,0,1.12,1.13h88.87a1.13,1.13,0,0,0,1.12-1.13V24.83a1.12,1.12,0,0,0-1.12-1.12Z"/><path d="M1854.92,0H12.61A12.63,12.63,0,0,0,0,12.61V608.87a12.63,12.63,0,0,0,12.61,12.61H1854.92a12.63,12.63,0,0,0,12.61-12.61V12.61A12.63,12.63,0,0,0,1854.92,0Zm10.61,608.87a10.62,10.62,0,0,1-10.61,10.61H12.61A10.62,10.62,0,0,1,2,608.87V12.61A10.62,10.62,0,0,1,12.61,2H1854.92a10.62,10.62,0,0,1,10.61,10.61Z"/></g><rect x="294.97" y="303.36" width="95.11" height="95.11" rx="4" style="fill:#fff"/><path d="M386.08,398.46H299a4,4,0,0,1-4-4v-87.1a4,4,0,0,1,4-4h87.11a4,4,0,0,1,4,4v87.1A4,4,0,0,1,386.08,398.46ZM299,305.36a2,2,0,0,0-2,2v87.1a2,2,0,0,0,2,2h87.11a2,2,0,0,0,2-2v-87.1a2,2,0,0,0-2-2Z"/><path d="M336.59,356.46c.35,2.58,2.74,4.14,6.18,4.14,3.25,0,5.61-1.71,5.61-4.07,0-2-1.33-3.34-4.65-4.07l-2.66-.58c-4.79-1-6.87-3.22-6.87-6.62,0-3.95,3.49-6.73,8.45-6.73,4.78,0,8.24,2.86,8.37,6.93h-3c-.27-2.63-2.34-4.24-5.46-4.24s-5.3,1.46-5.3,3.9c0,1.9,1.28,3.19,4.55,3.91l2.66.58c5,1.09,7,3.09,7,6.47,0,4.43-3.49,7.21-8.85,7.21s-8.71-2.69-9-6.83Z"/><rect x="395.62" y="303.36" width="95.11" height="95.11" rx="4" style="fill:#fff"/><path d="M486.73,398.46H399.62a4,4,0,0,1-4-4v-87.1a4,4,0,0,1,4-4h87.11a4,4,0,0,1,4,4v87.1A4,4,0,0,1,486.73,398.46Zm-87.11-93.1a2,2,0,0,0-2,2v87.1a2,2,0,0,0,2,2h87.11a2,2,0,0,0,2-2v-87.1a2,2,0,0,0-2-2Z"/><path d="M441.55,338.93c7.1,0,11.3,4.44,11.3,12s-4.18,12-11.3,12H433.5v-24Zm-5.07,21.27h4.87c5.43,0,8.45-3.32,8.45-9.26s-3-9.32-8.45-9.32h-4.87Z"/><rect x="496.27" y="303.36" width="95.11" height="95.11" rx="4" style="fill:#fff"/><path d="M587.38,398.46H500.27a4,4,0,0,1-4-4v-87.1a4,4,0,0,1,4-4h87.11a4,4,0,0,1,4,4v87.1A4,4,0,0,1,587.38,398.46Zm-87.11-93.1a2,2,0,0,0-2,2v87.1a2,2,0,0,0,2,2h87.11a2,2,0,0,0,2-2v-87.1a2,2,0,0,0-2-2Z"/><path d="M536.55,362.89v-24H551.1v2.69H539.54v8.24h10.61v2.65H539.54v10.38Z"/><rect x="596.92" y="303.36" width="95.11" height="95.11" rx="4" style="fill:#fff"/><path d="M688,398.46H600.92a4,4,0,0,1-4-4v-87.1a4,4,0,0,1,4-4H688a4,4,0,0,1,4,4v87.1A4,4,0,0,1,688,398.46Zm-87.11-93.1a2,2,0,0,0-2,2v87.1a2,2,0,0,0,2,2H688a2,2,0,0,0,2-2v-87.1a2,2,0,0,0-2-2Z"/><path d="M644.88,363.29c-6.69,0-11-4.88-11-12.5s4.26-12.26,11-12.26c5.18,0,9.11,3.08,10,7.84h-3.14a6.81,6.81,0,0,0-6.87-5.08c-4.93,0-7.9,3.55-7.9,9.48s3,9.76,7.9,9.76c4.25,0,7.17-2.75,7.17-6.77v-.43h-6.76V350.7H655V353C655,359.45,651.27,363.29,644.88,363.29Z"/><rect x="697.57" y="303.36" width="95.11" height="95.11" rx="4" style="fill:#fff"/><path d="M788.67,398.46h-87.1a4,4,0,0,1-4-4v-87.1a4,4,0,0,1,4-4h87.1a4,4,0,0,1,4,4v87.1A4,4,0,0,1,788.67,398.46Zm-87.1-93.1a2,2,0,0,0-2,2v87.1a2,2,0,0,0,2,2h87.1a2,2,0,0,0,2-2v-87.1a2,2,0,0,0-2-2Z"/><path d="M751.7,362.89V352H738.55v10.91h-3v-24h3v10.36H751.7V338.93h3v24Z"/><rect x="798.22" y="303.36" width="95.11" height="95.11" rx="4" style="fill:#fff"/><path d="M889.32,398.46h-87.1a4,4,0,0,1-4-4v-87.1a4,4,0,0,1,4-4h87.1a4,4,0,0,1,4,4v87.1A4,4,0,0,1,889.32,398.46Zm-87.1-93.1a2,2,0,0,0-2,2v87.1a2,2,0,0,0,2,2h87.1a2,2,0,0,0,2-2v-87.1a2,2,0,0,0-2-2Z"/><path d="M841.83,357a3.55,3.55,0,0,0,3.79,3.44c2.64,0,4.07-1.58,4.07-4.5V338.65h3v17.28c0,4.55-2.63,7.24-7,7.24-4,0-6.78-2.56-6.78-6.19Z"/><rect x="194.32" y="303.36" width="95.11" height="95.11" rx="4" style="fill:#fff"/><path d="M285.43,398.46H198.32a4,4,0,0,1-4-4v-87.1a4,4,0,0,1,4-4h87.11a4,4,0,0,1,4,4v87.1A4,4,0,0,1,285.43,398.46Zm-87.11-93.1a2,2,0,0,0-2,2v87.1a2,2,0,0,0,2,2h87.11a2,2,0,0,0,2-2v-87.1a2,2,0,0,0-2-2Z"/><path d="M246.64,356h-9.53l-2.4,6.86h-3.14l8.83-24h3l8.83,24h-3.14ZM238,353.49h7.77l-3.83-10.92h-.1Z"/><rect x="1656.15" y="406.01" width="91.11" height="91.11" rx="2" style="fill:#fff"/><path d="M1745.26,499.11h-87.11a4,4,0,0,1-4-4V408a4,4,0,0,1,4-4h87.11a4,4,0,0,1,4,4v87.1A4,4,0,0,1,1745.26,499.11ZM1658.15,406a2,2,0,0,0-2,2v87.1a2,2,0,0,0,2,2h87.11a2,2,0,0,0,2-2V408a2,2,0,0,0-2-2Z"/><path d="M1700.46,460.11V447.72l.09-2.21-3,3.35-1.81,1.78a1.22,1.22,0,0,1-.88.35,1.17,1.17,0,0,1-1.19-1.21,1.29,1.29,0,0,1,.38-.9l6.72-6.73a1.25,1.25,0,0,1,.93-.41,1.23,1.23,0,0,1,.91.41l6.72,6.73a1.3,1.3,0,0,1,.39.9,1.17,1.17,0,0,1-1.2,1.21,1.24,1.24,0,0,1-.88-.35l-1.81-1.78-3-3.34.09,2.2v12.39a1.24,1.24,0,1,1-2.48,0Z"/><rect x="1756.71" y="506.66" width="91.11" height="91.11" rx="2" style="fill:#fff"/><path d="M1845.82,599.77h-87.11a4,4,0,0,1-4-4V508.66a4,4,0,0,1,4-4h87.11a4,4,0,0,1,4,4v87.11A4,4,0,0,1,1845.82,599.77Zm-87.11-93.11a2,2,0,0,0-2,2v87.11a2,2,0,0,0,2,2h87.11a2,2,0,0,0,2-2V508.66a2,2,0,0,0-2-2Z"/><path d="M1811.54,553.14l-6.74,6.71a1.3,1.3,0,0,1-.89.39,1.22,1.22,0,0,1-.86-2.08l1.77-1.81,3.39-3.07-2.48.17h-11.91a1.25,1.25,0,1,1,0-2.49h11.91l2.48.17-3.39-3.07-1.77-1.8a1.24,1.24,0,0,1-.36-.89,1.16,1.16,0,0,1,1.22-1.18,1.29,1.29,0,0,1,.89.38l6.74,6.7a1.37,1.37,0,0,1,.42.93A1.34,1.34,0,0,1,1811.54,553.14Z"/><rect x="1656.15" y="506.66" width="91.11" height="91.11" rx="2" style="fill:#fff"/><path d="M1745.26,599.77h-87.11a4,4,0,0,1-4-4V508.66a4,4,0,0,1,4-4h87.11a4,4,0,0,1,4,4v87.11A4,4,0,0,1,1745.26,599.77Zm-87.11-93.11a2,2,0,0,0-2,2v87.11a2,2,0,0,0,2,2h87.11a2,2,0,0,0,2-2V508.66a2,2,0,0,0-2-2Z"/><path d="M1702.94,543.64V556l-.09,2.19,3-3.34,1.81-1.77a1.33,1.33,0,0,1,.88-.35,1.18,1.18,0,0,1,1.2,1.21,1.32,1.32,0,0,1-.39.9l-6.72,6.73a1.27,1.27,0,0,1-.91.42,1.3,1.3,0,0,1-.93-.42l-6.72-6.73a1.31,1.31,0,0,1-.38-.9,1.17,1.17,0,0,1,1.19-1.21,1.31,1.31,0,0,1,.88.35l1.81,1.77,3,3.36-.09-2.21v-12.4a1.24,1.24,0,1,1,2.48,0Z"/><rect x="1555.59" y="506.66" width="91.11" height="91.11" rx="2" style="fill:#fff"/><path d="M1644.69,599.77h-87.1a4,4,0,0,1-4-4V508.66a4,4,0,0,1,4-4h87.1a4,4,0,0,1,4,4v87.11A4,4,0,0,1,1644.69,599.77Zm-87.1-93.11a2,2,0,0,0-2,2v87.11a2,2,0,0,0,2,2h87.1a2,2,0,0,0,2-2V508.66a2,2,0,0,0-2-2Z"/><path d="M1591.85,551.27l6.75-6.7a1.21,1.21,0,0,1,.88-.38,1.17,1.17,0,0,1,1.23,1.18,1.25,1.25,0,0,1-.37.89l-1.76,1.8-3.39,3.07,2.46-.17h11.92a1.25,1.25,0,1,1,0,2.49h-11.92l-2.48-.17,3.41,3.07,1.76,1.81a1.21,1.21,0,0,1-.86,2.08,1.23,1.23,0,0,1-.88-.39l-6.75-6.71a1.32,1.32,0,0,1-.4-.94A1.35,1.35,0,0,1,1591.85,551.27Z"/></svg>