<svg xmlns="http://www.w3.org/2000/svg" xmlns:xlink="http://www.w3.org/1999/xlink" viewBox="0 0 1401 309.66"><defs><linearGradient id="a" x1="415.89" y1="26.05" x2="430.2" y2="299" gradientUnits="userSpaceOnUse"><stop offset="0.01" stop-color="#fbc926"/><stop offset="0.23" stop-color="#fffbcc"/><stop offset="0.31" stop-color="#faefbe"/><stop offset="0.39" stop-color="#e7cf8c"/><stop offset="0.49" stop-color="#d4ae59"/><stop offset="0.56" stop-color="#c89a3a"/><stop offset="0.6" stop-color="#c3922e"/><stop offset="0.69" stop-color="#ca9e3e"/><stop offset="0.87" stop-color="#debd66"/><stop offset="1" stop-color="#eed688"/></linearGradient></defs><rect x="578.55" y="194.23" width="760.99" height="13" style="fill:#ddd;stroke:#727373;stroke-miterlimit:10;stroke-width:0.5px"/><path d="M1320.17,271.91v13l-748.29-.78h0l-.48-12.21Z" style="fill:#ddd;stroke:#727373;stroke-miterlimit:10;stroke-width:0.5px"/><path d="M847.64,133.36c-2-38.69-6.61-91.62-26.5-123.71h0c-1.53-1.86-3.34-3.73-5.73-4.36C807.26,2.77,797.8,38.07,797.58,38A70,70,0,0,1,787,55.44c-16.8,21.84-41.77,34.05-66.85,41.44-76.27,19.47-290,36.06-301.88,37.92-145.92,14.65-302.65,29.42-348.41,34.92-6,.72-20.69.93-36,9.45-2.53,1.41-14.71,8.4-22.38,19.45-16.76,24.14-14.77,69.17,14.3,94.12,20.88,17.92,47.58,12.23,78.6,10.65,49.85-4.38,101.28-9.9,154.22-12.36,76.36-3.55,150-3.68,220.74-2.22,2.56.06.12,4.11,2.68,4.17,2.2,0,8.71.43,12.66-.09,1.45-.19.64-3.72,1.48-3.7q38.61.94,76,2.37c-.33-8.56-.67-17.1-1-25.67-11.25.61-30.69,1-43.24,1.24l1-51.56h49.62V187.22c-14.88.36-54.52,1.19-68.73,2.17-12.1.83-24.14,2.92-36.27,2.3-1.41-2.95-6.43-8-9.71-8.42l-1.53-17.06c82.68,1.58,278.9-25.56,336.07,25.17,15.72,16.63,34.71,91.33,45.37,15.85A496.39,496.39,0,0,0,847.64,133.36ZM472.23,209.67l31.77,1,7.31,2.92-1,51.67c-9.94-.06-26.42,0-39.15.17l-4.47-50.11A48.63,48.63,0,0,0,472.23,209.67ZM61.17,284.56c-48.56,2.36-53.45-82.73-7.78-90.65,8.84-.82,19.69-1.61,28.54-2.37l.22,16.64C50.39,224,65,261.67,85.66,264.77c.19,2.88,1,15.13,1.19,17.74C77.27,283.19,70,283.88,61.17,284.56Zm41.51-3V263.77c32.23-18.52,16.8-52.63-4.5-57.09V189.83q34.27-2.85,68.6-5.27c1.2,10.73,9.39,83.68,10.36,92.39C151.19,278.42,126.08,280,102.68,281.56ZM194.44,276c-1.2-11.87-8-79.34-9.37-92.71,86.05-5.94,174.09-10.58,260.28-16.2l1.49,13.85c-.69,0-2.39-3-3.09-3-4.05.62-8.41-1.56-9.67,2.63-.92,7.11-2.28,29.69-.39,39.25,1,4.53,8.44,2.73,11,2.33,1.73-.64,2.48-6.37,7-4l4.12,47.54C386,266.94,286.31,270.94,194.44,276Z" style="stroke:#978659;stroke-miterlimit:10;fill:url(#a)"/><rect width="1401" height="309.66" style="fill:none"/></svg>