<svg xmlns="http://www.w3.org/2000/svg" viewBox="0 0 373.54 590.12"><g style="isolation:isolate"><g style="opacity:0.86"><path d="M346.88,358.08q0-10.41.06-20.83c.06-16.74.12-34-.15-51.06-.05-2.94-.08-5.89-.11-8.85-.12-13.63-.25-27.72-2.42-41.22-9.27-57.8-62.69-104.27-121.6-105.78-11.1-.29-22.51-.43-34.86-.4v81.71h9.5a7,7,0,0,1,7,7v54.54a7,7,0,0,1-7,7h-9.5v78.73h-2V280.19h-9.66a7,7,0,0,1-7-7V218.65a7,7,0,0,1,7-7h9.66V130c-10.53,0-21.48.17-33.46.42A125.52,125.52,0,0,0,125.48,134,130.58,130.58,0,0,0,26.56,262.19c.2,30,.16,60.56.12,90.09,0,26.27-.07,53.43.06,80.15l0,4c.06,15.22.12,30.95,2.53,46,9.11,56.9,61.62,103.1,119.56,105.17,17.36.62,35,.49,52.14.36,6.06,0,12.13-.09,18.19-.1a114,114,0,0,0,14.28-1c63.18-8.07,111.81-61.8,113.13-125,.49-23.59.36-47.61.24-70.83-.06-10.48-.11-21.32-.11-32v-1Z" style="fill:#fff"/><path d="M176.14,213.65a5,5,0,0,0-5,5v54.54a5,5,0,0,0,5,5H197.3a5,5,0,0,0,5-5V218.65a5,5,0,0,0-5-5H176.14Z" style="fill:#fff"/><path d="M348.88,359.06q0-10.9.06-21.8c.06-16.75.12-34.07-.15-51.1-.05-2.94-.08-5.89-.11-8.84-.12-13.7-.25-27.87-2.44-41.51-9.42-58.73-63.69-105.94-123.53-107.47-11.11-.29-22.55-.42-34.91-.4h-2c-10.54,0-21.51.17-33.5.42a127.73,127.73,0,0,0-27.3,3.71A132.58,132.58,0,0,0,24.56,262.21c.2,30,.16,60.54.12,90.06,0,26.28-.07,53.45.06,80.17l0,4c.06,15.29.12,31.11,2.56,46.32,9.25,57.81,62.6,104.74,121.46,106.84,10.22.37,20.55.48,30.8.48,7.2,0,14.36-.06,21.42-.11,6.06,0,12.12-.09,18.18-.1a116,116,0,0,0,14.53-1.07c64.16-8.19,113.54-62.76,114.88-126.93.49-23.62.36-47.64.24-70.88-.05-10.15-.11-20.64-.11-31h.16ZM197.3,213.65a5,5,0,0,1,5,5v54.54a5,5,0,0,1-5,5H176.14a5,5,0,0,1-5-5V218.65a5,5,0,0,1,5-5Zm149.64,123.6q0,10.41-.06,20.83h-.16v1c0,10.66,0,21.5.11,32,.12,23.22.25,47.24-.24,70.83-1.32,63.19-49.95,116.92-113.13,125a114,114,0,0,1-14.28,1c-6.06,0-12.13.06-18.19.1-17.1.13-34.78.26-52.14-.36C90.91,585.58,38.4,539.38,29.29,482.48c-2.41-15.06-2.47-30.79-2.53-46l0-4c-.13-26.72-.09-53.88-.06-80.15,0-29.53.08-60.06-.12-90.09A130.58,130.58,0,0,1,125.48,134a125.52,125.52,0,0,1,26.86-3.65c12-.25,22.93-.39,33.46-.42v81.7h-9.66a7,7,0,0,0-7,7v54.54a7,7,0,0,0,7,7h9.66v78.73h2V280.19h9.5a7,7,0,0,0,7-7V218.65a7,7,0,0,0-7-7h-9.5V129.94c12.35,0,23.76.11,34.86.4,58.91,1.51,112.33,48,121.6,105.78,2.17,13.5,2.3,27.59,2.42,41.22,0,3,.06,5.91.11,8.85C347.06,303.21,347,320.51,346.94,337.25Z"/></g><path d="M187.8,127.94v85.71H176.14a5,5,0,0,0-5,5v54.54a5,5,0,0,0,5,5H187.8v80.73H24.67q0-3.33,0-6.65c0-29.52.08-60-.12-90.06A132.58,132.58,0,0,1,125,132.08a127.73,127.73,0,0,1,27.3-3.71c12-.25,23-.39,33.5-.42h2Z" style="fill:#fff;mix-blend-mode:multiply"/><path d="M105.14,60.75A49.2,49.2,0,0,0,94,41.76,44.18,44.18,0,0,0,76.73,30.91a66.93,66.93,0,0,0-22.1-3.46H52.16V3.71a4.22,4.22,0,0,0-.81-2.63A2.81,2.81,0,0,0,48.94,0a4.23,4.23,0,0,0-2.07.51,7.23,7.23,0,0,0-1.69,1.26l-42,39A12.07,12.07,0,0,0,.54,43.94,5.4,5.4,0,0,0,0,46.19a5.21,5.21,0,0,0,.57,2.26,12.85,12.85,0,0,0,2.6,3.17l42,39a9.32,9.32,0,0,0,1.66,1.24,4.15,4.15,0,0,0,2.1.53,2.8,2.8,0,0,0,2.41-1.07,4.24,4.24,0,0,0,.81-2.63V65.47h2.47A88.07,88.07,0,0,1,76.87,68,40.13,40.13,0,0,1,92.6,75.68a35.07,35.07,0,0,1,9.89,13.75,5.81,5.81,0,0,0,1.42,2.28,3.05,3.05,0,0,0,2.07.67,2.85,2.85,0,0,0,2.2-1,3.85,3.85,0,0,0,.91-2.68Q109.09,72.35,105.14,60.75Zm.62,29a.78.78,0,0,1-.64-.38,5,5,0,0,1-.49-.86,36.21,36.21,0,0,0-10.2-14.74,41.26,41.26,0,0,0-16.62-8.27,93,93,0,0,0-23.4-2.61H50.87a1.22,1.22,0,0,0-1.4,1.35v24c0,.79-.3,1.19-.91,1.19a2.5,2.5,0,0,1-1.5-.86l-42.27-39A7.75,7.75,0,0,1,3.2,47.64a3,3,0,0,1-.4-1.45c0-1,.66-2.06,2-3.27L47,3.81a3,3,0,0,1,.65-.56A1.54,1.54,0,0,1,48.51,3q1,0,1,1V28.74a1.23,1.23,0,0,0,1.4,1.39h3.54a68,68,0,0,1,17.67,2.18A44.82,44.82,0,0,1,86.56,39,41.15,41.15,0,0,1,97.41,50.49,54.23,54.23,0,0,1,104.23,67a93.66,93.66,0,0,1,2.39,21.81C106.62,89.39,106.33,89.7,105.76,89.7Z"/><path d="M106.62,88.79c0,.6-.29.91-.86.91a.78.78,0,0,1-.64-.38,5,5,0,0,1-.49-.86,36.21,36.21,0,0,0-10.2-14.74,41.26,41.26,0,0,0-16.62-8.27,93,93,0,0,0-23.4-2.61H50.87a1.22,1.22,0,0,0-1.4,1.35v24c0,.79-.3,1.19-.91,1.19a2.5,2.5,0,0,1-1.5-.86l-42.27-39A7.75,7.75,0,0,1,3.2,47.64a3,3,0,0,1-.4-1.45c0-1,.66-2.06,2-3.27L47,3.81a3,3,0,0,1,.65-.56A1.54,1.54,0,0,1,48.51,3q1,0,1,1V28.74a1.23,1.23,0,0,0,1.4,1.39h3.54a68,68,0,0,1,17.67,2.18A44.82,44.82,0,0,1,86.56,39,41.15,41.15,0,0,1,97.41,50.49,54.23,54.23,0,0,1,104.23,67,93.66,93.66,0,0,1,106.62,88.79Z" style="fill:#fff;opacity:0.86"/><path d="M373,43.94a11.18,11.18,0,0,0-2.66-3.17l-42-39A7.74,7.74,0,0,0,326.71.51a4.13,4.13,0,0,0-2-.51,2.88,2.88,0,0,0-2.47,1.08,4.28,4.28,0,0,0-.8,2.63V27.45h-2.47a67.09,67.09,0,0,0-22.05,3.46,43.75,43.75,0,0,0-17.24,10.85,49.3,49.3,0,0,0-11.17,19q-4,11.6-3.95,27.93a3.94,3.94,0,0,0,.88,2.68,2.85,2.85,0,0,0,2.23,1,3,3,0,0,0,2-.67,5.92,5.92,0,0,0,1.42-2.28A35.61,35.61,0,0,1,281,75.68,39.91,39.91,0,0,1,296.68,68a88.07,88.07,0,0,1,22.24-2.48h2.47V88.68a4.19,4.19,0,0,0,.83,2.63,2.83,2.83,0,0,0,2.39,1.07,4.15,4.15,0,0,0,2.1-.53,9.7,9.7,0,0,0,1.66-1.24l42-39A11.82,11.82,0,0,0,373,48.45a5.44,5.44,0,0,0,.54-2.26A5.66,5.66,0,0,0,373,43.94Zm-2.68,3.7a8.92,8.92,0,0,1-1.48,1.83L326.54,88.52a2.73,2.73,0,0,1-1.55.86c-.61,0-.92-.4-.92-1.19v-24a1.21,1.21,0,0,0-1.39-1.35h-3.49a93,93,0,0,0-23.4,2.61,41.26,41.26,0,0,0-16.62,8.27,36.71,36.71,0,0,0-10.26,14.74,4.38,4.38,0,0,1-.48.86.8.8,0,0,1-.65.38c-.57,0-.85-.31-.85-.91A93.12,93.12,0,0,1,269.32,67a54,54,0,0,1,6.82-16.49A41,41,0,0,1,287,39a44.76,44.76,0,0,1,14.47-6.69,68.35,68.35,0,0,1,17.73-2.18h3.49a1.23,1.23,0,0,0,1.39-1.39V4c0-.68.33-1,1-1a1.57,1.57,0,0,1,.86.24,7.29,7.29,0,0,1,.75.56l42.22,39.11c1.25,1.21,1.88,2.31,1.88,3.27A3.15,3.15,0,0,1,370.35,47.64Z"/><path d="M370.75,46.19a3.15,3.15,0,0,1-.4,1.45,8.92,8.92,0,0,1-1.48,1.83L326.54,88.52a2.73,2.73,0,0,1-1.55.86c-.61,0-.92-.4-.92-1.19v-24a1.21,1.21,0,0,0-1.39-1.35h-3.49a93,93,0,0,0-23.4,2.61,41.26,41.26,0,0,0-16.62,8.27,36.71,36.71,0,0,0-10.26,14.74,4.38,4.38,0,0,1-.48.86.8.8,0,0,1-.65.38c-.57,0-.85-.31-.85-.91A93.12,93.12,0,0,1,269.32,67a54,54,0,0,1,6.82-16.49A41,41,0,0,1,287,39a44.76,44.76,0,0,1,14.47-6.69,68.35,68.35,0,0,1,17.73-2.18h3.49a1.23,1.23,0,0,0,1.39-1.39V4c0-.68.33-1,1-1a1.57,1.57,0,0,1,.86.24,7.29,7.29,0,0,1,.75.56l42.22,39.11C370.12,44.13,370.75,45.23,370.75,46.19Z" style="fill:#fff;opacity:0.86"/></g></svg>