<svg xmlns="http://www.w3.org/2000/svg" viewBox="0 0 66.667 36.809"><defs><style>.a{fill:#141414;}.b{fill:#00d4e7;}.c{fill:#00b2e7;}</style></defs><polygon class="a" points="18.984 22.012 15.125 28.972 6.776 13.911 6.776 36.809 0 36.809 0 0 6.782 0 18.984 22.012"/><polygon class="a" points="39.996 3.907 39.996 14.745 36.336 18.404 39.996 22.064 39.996 36.809 33.22 36.809 33.22 16.131 39.996 3.907"/><polygon class="b" points="33.22 0 33.22 0 33.22 0.003 12.813 36.809 12.813 36.809 19.585 36.809 39.996 0.003 39.996 0.003 39.996 0 33.22 0"/><polygon class="c" points="48.262 18.404 66.667 36.809 57.124 36.809 38.72 18.404 57.121 0 66.667 0 48.262 18.404"/></svg>