<svg xmlns="http://www.w3.org/2000/svg" viewBox="0 0 268.271 30"><path d="M6.1,12.266V29.132H0V1.207H6.112l9.779,17.879L25.84,1.207h5.951V29.132h-6.1v-16.8L15.961,30Z"/><path d="M51.4,0,67.407,29.126H60.836L58.008,23.86H44.682L41.87,29.126h-6.7Zm3.889,18.79-3.96-7.373L47.389,18.79Z"/><path d="M87.624,29.132,76.913,17.446V29.132H70.778V1.207h13.3c6.465,0,10.542,3.286,10.542,8.892,0,5.455-3.3,8.314-9.345,8.52L95.785,29.132ZM76.913,13.539H84.57c2.319,0,3.8-1.147,3.8-3.44,0-2.241-1.476-3.415-3.8-3.415H76.913Z"/><path d="M107.977,17.781,96.218,1.207h7.27l7.543,10.855,7.542-10.855h7.271L114.085,17.781V29.1h-6.108Z"/><path d="M158.826,29.132,146.162,15.18V29.132h-6.134V1.207h6.134V12.232L156.5,1.207h8.174l-12.2,12.519,14.392,15.406Z"/><path d="M169.351,1.207h22.037V6.773H175.45v4.884l11.191.027v5.392H175.45v6.478h15.973v5.578H169.351Z"/><path d="M197.409,1.207h6.135l-.035,22.352h14.136v5.573H197.409Z"/><path d="M222.325,1.207h6.134l-.035,22.352H242.56v5.573H222.325Z"/><path d="M250.4,17.781,238.646,1.207h7.271l7.541,10.855L261,1.207h7.27L256.512,17.781V29.1H250.4Z"/></svg>